<svg xmlns="http://www.w3.org/2000/svg" width="24" height="24" viewBox="0 0 24 24">
  <g id="_attachment" data-name=" attachment" transform="translate(-474 -2280)">
    <rect id="Path" width="24" height="24" transform="translate(474 2280)" fill="rgba(0,0,0,0)"/>
    <path id="Icon" d="M492.5,2296.75a.756.756,0,0,1-.75.75H481a5.505,5.505,0,0,1-5.48-6.04,5.659,5.659,0,0,1,5.71-4.96H493.5a3.993,3.993,0,0,1,3.98,4.39,4.116,4.116,0,0,1-4.15,3.61H483a2.5,2.5,0,0,1-2.49-2.76,2.6,2.6,0,0,1,2.63-2.24h8.61a.75.75,0,0,1,0,1.5H483a1,1,0,1,0,0,2h10.5a2.5,2.5,0,0,0,2.49-2.76,2.6,2.6,0,0,0-2.63-2.24H481a4,4,0,0,0-3.98,4.39,4.116,4.116,0,0,0,4.15,3.61h10.58A.755.755,0,0,1,492.5,2296.75Z" fill="#7976da"/>
  </g>
</svg>
