<svg xmlns="http://www.w3.org/2000/svg" width="24" height="24" viewBox="0 0 24 24">
  <g id="_nsert_photo" data-name=" nsert_photo" transform="translate(-848 -2058)">
    <rect id="Path" width="24" height="24" transform="translate(848 2058)" fill="none"/>
    <path id="Icon" d="M867,2079H853a2,2,0,0,1-2-2v-14a2,2,0,0,1,2-2h14a2,2,0,0,1,2,2v14A2,2,0,0,1,867,2079Zm-10.485-7.2a.485.485,0,0,0-.4.2l-2.489,3.2a.5.5,0,0,0-.059.531.488.488,0,0,0,.449.28h11.99a.5.5,0,0,0,.449-.279.488.488,0,0,0-.048-.521l-3.51-4.681a.5.5,0,0,0-.8-.01l-3.1,3.99-2.1-2.53A.5.5,0,0,0,856.515,2071.8Z" fill="#7976da"/>
  </g>
</svg>
