<svg xmlns="http://www.w3.org/2000/svg" width="23.19" height="26.503" viewBox="0 0 23.19 26.503">
  <path id="bell-regular" d="M22.744,18.753c-1-1.075-2.871-2.691-2.871-7.987A8.174,8.174,0,0,0,13.25,2.735V1.656a1.655,1.655,0,1,0-3.311,0V2.735a8.174,8.174,0,0,0-6.623,8.032c0,5.3-1.871,6.912-2.871,7.987A1.617,1.617,0,0,0,0,19.877a1.658,1.658,0,0,0,1.662,1.656H21.528a1.658,1.658,0,0,0,1.662-1.656,1.616,1.616,0,0,0-.446-1.124Zm-19.249.3C4.593,17.6,5.794,15.2,5.8,10.8c0-.01,0-.02,0-.03a5.8,5.8,0,0,1,11.595,0c0,.01,0,.02,0,.03.006,4.405,1.207,6.8,2.305,8.252Zm8.1,7.454a3.312,3.312,0,0,0,3.311-3.313H8.283A3.312,3.312,0,0,0,11.594,26.5Z" transform="translate(0.001)" fill="#fefefe"/>
</svg>
