<svg xmlns="http://www.w3.org/2000/svg" width="23.187" height="26.499" viewBox="0 0 23.187 26.499">
  <path id="bell-solid" d="M11.593,26.5A3.312,3.312,0,0,0,14.9,23.187H8.282A3.312,3.312,0,0,0,11.593,26.5Zm11.148-7.748c-1-1.074-2.871-2.691-2.871-7.985a8.173,8.173,0,0,0-6.622-8.031V1.656a1.655,1.655,0,1,0-3.31,0V2.735a8.173,8.173,0,0,0-6.622,8.031c0,5.295-1.871,6.911-2.871,7.985A1.617,1.617,0,0,0,0,19.874a1.658,1.658,0,0,0,1.661,1.656H21.525a1.657,1.657,0,0,0,1.661-1.656A1.616,1.616,0,0,0,22.741,18.751Z" transform="translate(0.001)" fill="#fefefe"/>
</svg>
