<svg xmlns="http://www.w3.org/2000/svg" width="8.668" height="8.316" viewBox="0 0 8.668 8.316">
  <path id="패스_1266" data-name="패스 1266" d="M440.917,117.083a.733.733,0,0,0-.706-.513h-1.339a1.185,1.185,0,0,1-1.131-.822l-.414-1.273a.742.742,0,0,0-1.412,0l-.414,1.274a1.186,1.186,0,0,1-1.131.821h-1.339a.743.743,0,0,0-.437,1.343l1.084.787a1.187,1.187,0,0,1,.432,1.33L433.7,121.3a.743.743,0,0,0,1.143.83l1.083-.787a1.185,1.185,0,0,1,1.4,0l1.083.787a.731.731,0,0,0,.873,0,.731.731,0,0,0,.27-.83l-.414-1.273a1.186,1.186,0,0,1,.432-1.33l1.083-.787A.731.731,0,0,0,440.917,117.083Z" transform="translate(-432.288 -113.962)" fill="#f8c25d"/>
</svg>