<svg xmlns="http://www.w3.org/2000/svg" width="8.316" height="8.316" viewBox="0 0 8.316 8.316">
  <g id="그룹_1250" data-name="그룹 1250" transform="translate(-41.33)">
    <path id="패스_1256" data-name="패스 1256" d="M45.488,143.278a4.158,4.158,0,1,0,4.158,4.158A4.163,4.163,0,0,0,45.488,143.278Zm0,7.722a3.565,3.565,0,1,1,3.564-3.565A3.569,3.569,0,0,1,45.488,151Z" transform="translate(0 -143.278)" fill="#6a6d70"/>
    <path id="패스_1257" data-name="패스 1257" d="M51.145,150.441v-2.476a.3.3,0,0,0-.593,0v2.6a.3.3,0,0,0,.087.21l1.052,1.053a.3.3,0,1,0,.42-.42Z" transform="translate(-5.361 -145.83)" fill="#6a6d70"/>
  </g>
</svg>